<?xml version="1.0" encoding="utf-8"?>
<!-- Generator: Adobe Illustrator 25.4.1, SVG Export Plug-In . SVG Version: 6.00 Build 0)  -->
<svg version="1.1" xmlns="http://www.w3.org/2000/svg" xmlns:xlink="http://www.w3.org/1999/xlink" x="0px" y="0px"
	 viewBox="0 0 2098.2 1080" style="enable-background:new 0 0 2098.2 1080;" xml:space="preserve">
<style type="text/css">
	.st0{display:none;}
	.st1{display:inline;fill:#FFFFFF;}
	.st2{fill:#FF4600;}
	.st3{fill:#00005F;}
	.st4{fill:#CD3C1B;}
	.st5{fill:#A53232;}
	.st6{fill:#7D2D46;}
	.st7{fill:#64286E;}
	.st8{fill:#411489;}
	.st9{fill:#171775;}
</style>
<g id="Background" class="st0">
	<rect x="-11.4" y="-10.5" class="st1" width="2121.1" height="1101"/>
</g>
<g id="Contenu">
	<g>
		<g>
			<g>
				<g>
					<g>
						<path class="st2" d="M1000.8,676.5c-4.8,0-9.1-0.7-12.9-2.1s-6.9-3.5-9.2-6.3c-2.3-2.8-3.5-6.1-3.6-10h10
							c0.1,1.9,0.9,3.7,2.4,5.1c1.5,1.5,3.5,2.6,5.9,3.4c2.5,0.8,5.1,1.2,8,1.2c2.7,0,5-0.4,7-1.2c2-0.8,3.5-1.9,4.5-3.3
							c1-1.4,1.6-3.1,1.6-5c0-1.7-0.4-3.1-1.2-4.1c-0.8-1-2.3-2-4.6-2.8c-2.3-0.9-5.9-2-11-3.4c-5.4-1.4-9.5-2.8-12.5-4.3
							s-5.1-3.2-6.4-5.2c-1.3-2-1.9-4.4-1.9-7.3c0-3.4,1-6.5,2.9-9.1c1.9-2.6,4.6-4.7,8-6.1c3.4-1.4,7.4-2.2,11.9-2.2
							c4.6,0,8.7,0.7,12.3,2.1c3.6,1.4,6.5,3.5,8.7,6.2s3.4,5.9,3.6,9.7h-10c-0.1-2-0.9-3.6-2.1-5c-1.3-1.4-3-2.4-5.1-3.1
							c-2.1-0.7-4.6-1.1-7.4-1.2c-2.5-0.1-4.8,0.2-6.7,0.9c-2,0.7-3.5,1.6-4.6,2.9c-1.1,1.3-1.7,2.7-1.7,4.4c0,1.5,0.5,2.8,1.4,3.7
							c0.9,1,2.5,1.9,4.9,2.8c2.3,0.9,5.9,2,10.7,3.2c5.3,1.4,9.5,2.8,12.4,4.3s5.1,3.4,6.4,5.4c1.3,2.1,2,4.7,2,7.8
							c0,3.8-0.9,7.1-2.8,9.8c-1.9,2.8-4.6,4.9-8.2,6.4C1009.9,675.8,1005.7,676.5,1000.8,676.5z"/>
						<path class="st2" d="M1063.9,676.6c-5.9,0-10.9-1.3-15.2-4c-4.3-2.7-7.5-6.4-9.7-11.1c-2.2-4.7-3.4-10.2-3.4-16.3
							c0-6.2,1.2-11.7,3.5-16.4c2.3-4.7,5.5-8.4,9.8-11c4.3-2.6,9.3-3.9,15.2-3.9c4.1,0,7.9,0.7,11.4,2.1c3.4,1.4,6.4,3.4,8.8,6
							c2.4,2.6,4.1,5.7,5.1,9.2l-9.7,2.9c-1.3-3.4-3.3-6.1-6.1-8c-2.8-1.9-6-2.9-9.6-2.9c-5.9,0-10.3,2-13.3,6
							c-3,4-4.5,9.4-4.6,16.1c0,4.5,0.7,8.4,2.1,11.7c1.4,3.3,3.4,5.9,6.1,7.7c2.7,1.8,5.9,2.7,9.8,2.7c3.8,0,7-0.9,9.6-2.6
							c2.6-1.8,4.6-4.3,5.9-7.8l9.9,2.6c-2.1,5.5-5.3,9.8-9.6,12.7C1075.4,675.1,1070.1,676.6,1063.9,676.6z"/>
						<path class="st2" d="M1103.9,605v-10.1h9.8V605H1103.9z M1103.9,674.9v-59.4h9.8v59.4H1103.9z"/>
						<path class="st2" d="M1158.2,676.6c-5.8,0-10.9-1.3-15.3-3.9s-7.8-6.2-10.2-10.9c-2.4-4.7-3.6-10.1-3.6-16.2
							c0-6.4,1.2-12,3.5-16.8s5.7-8.5,10-11.1c4.3-2.6,9.3-3.9,15-3.9c5.9,0,11,1.4,15.2,4.1c4.2,2.8,7.4,6.7,9.5,11.8
							c2.1,5.1,3,11.2,2.7,18.2h-9.9v-3.5c-0.1-4.9-0.8-8.9-2.1-12.1c-1.3-3.2-3.2-5.6-5.7-7.2c-2.5-1.6-5.7-2.4-9.4-2.4
							c-4,0-7.4,0.9-10.2,2.6c-2.8,1.7-4.9,4.3-6.3,7.6s-2.1,7.5-2.1,12.3c0,4.7,0.7,8.6,2.1,11.9c1.4,3.3,3.5,5.8,6.2,7.5
							c2.7,1.7,6,2.6,9.9,2.6c2.8,0,5.2-0.3,7.3-0.9c2.1-0.6,4.1-1.6,5.7-3c1.7-1.4,3.1-3.3,4.2-5.6h9.4c-1,4-2.8,7.4-5.3,10.2
							c-2.5,2.8-5.6,5-9.2,6.4C1166.3,675.9,1162.4,676.6,1158.2,676.6z M1136.2,648v-7.9h43.9v7.9H1136.2z"/>
						<path class="st2" d="M1199.6,674.9l0.1-31.3h9.8v16.7l0.1,2l-0.1,12.7H1199.6z M1241.9,645.2c0-4.3-0.5-8-1.4-11.2
							c-0.9-3.2-2.5-5.7-4.9-7.7c-2.3-2-5.5-3-9.5-3c-3.4,0-6.3,0.8-8.8,2.3c-2.5,1.5-4.4,3.8-5.8,6.8c-1.4,3-2.1,6.8-2.1,11.3h-9.8
							c0-6.9,1.3-12.5,3.8-17c2.5-4.5,5.8-7.7,9.9-9.8c4.1-2.1,8.6-3,13.4-2.9c4.8,0.1,9.1,1.3,12.9,3.5c3.8,2.2,6.8,5.4,9,9.6
							c2.2,4.2,3.2,9.2,3.2,15v32.9h-9.9V645.2z"/>
						<path class="st2" d="M1293.4,676.6c-5.9,0-10.9-1.3-15.2-4s-7.5-6.4-9.7-11.1c-2.2-4.7-3.4-10.2-3.4-16.3
							c0-6.2,1.2-11.7,3.5-16.4c2.3-4.7,5.5-8.4,9.8-11c4.3-2.6,9.3-3.9,15.2-3.9c4.1,0,7.9,0.7,11.4,2.1c3.4,1.4,6.4,3.4,8.8,6
							c2.4,2.6,4.1,5.7,5.1,9.2l-9.7,2.9c-1.3-3.4-3.3-6.1-6.1-8s-6-2.9-9.6-2.9c-5.9,0-10.3,2-13.3,6c-3,4-4.5,9.4-4.6,16.1
							c0,4.5,0.7,8.4,2.1,11.7c1.4,3.3,3.4,5.9,6.1,7.7s5.9,2.7,9.8,2.7c3.8,0,7-0.9,9.6-2.6c2.6-1.8,4.6-4.3,5.9-7.8l9.9,2.6
							c-2.1,5.5-5.3,9.8-9.6,12.7C1304.8,675.1,1299.6,676.6,1293.4,676.6z"/>
						<path class="st2" d="M1358,676.6c-5.8,0-10.9-1.3-15.3-3.9s-7.8-6.2-10.2-10.9c-2.4-4.7-3.6-10.1-3.6-16.2
							c0-6.4,1.2-12,3.5-16.8s5.7-8.5,10-11.1c4.3-2.6,9.3-3.9,15-3.9c5.9,0,11,1.4,15.2,4.1c4.2,2.8,7.4,6.7,9.5,11.8
							c2.1,5.1,3,11.2,2.7,18.2h-9.9v-3.5c-0.1-4.9-0.8-8.9-2.1-12.1c-1.3-3.2-3.2-5.6-5.7-7.2c-2.5-1.6-5.7-2.4-9.4-2.4
							c-4,0-7.4,0.9-10.2,2.6c-2.8,1.7-4.9,4.3-6.3,7.6s-2.1,7.5-2.1,12.3c0,4.7,0.7,8.6,2.1,11.9c1.4,3.3,3.5,5.8,6.2,7.5
							c2.7,1.7,6,2.6,9.9,2.6c2.8,0,5.2-0.3,7.3-0.9c2.1-0.6,4.1-1.6,5.7-3c1.7-1.4,3.1-3.3,4.2-5.6h9.4c-1,4-2.8,7.4-5.3,10.2
							c-2.5,2.8-5.6,5-9.2,6.4C1366.2,675.9,1362.3,676.6,1358,676.6z M1336.1,648v-7.9h43.9v7.9H1336.1z"/>
						<path class="st2" d="M1449,676.6c-5.8,0-10.9-1.3-15.2-4c-4.3-2.7-7.6-6.4-9.9-11.1c-2.3-4.8-3.5-10.2-3.5-16.3
							c0-6.2,1.2-11.6,3.5-16.3c2.3-4.7,5.7-8.4,10-11c4.3-2.6,9.4-3.9,15.1-3.9c5.9,0,11,1.3,15.3,4c4.3,2.6,7.6,6.3,9.9,11.1
							c2.3,4.7,3.5,10.2,3.5,16.3c0,6.2-1.2,11.7-3.5,16.4c-2.3,4.7-5.7,8.4-10,11.1C1459.9,675.3,1454.8,676.6,1449,676.6z
							 M1449,667.3c4,0,7.4-0.9,10.1-2.8c2.7-1.8,4.8-4.4,6.1-7.8c1.4-3.3,2-7.2,2-11.6c0-6.8-1.6-12.2-4.7-16.1
							c-3.1-3.9-7.6-5.9-13.6-5.9c-4,0-7.4,0.9-10.1,2.8c-2.7,1.8-4.7,4.4-6.1,7.7c-1.3,3.3-2,7.2-2,11.6c0,4.5,0.7,8.4,2.1,11.7
							c1.4,3.3,3.4,5.9,6.2,7.7C1441.8,666.4,1445.1,667.3,1449,667.3z"/>
						<path class="st2" d="M1517.1,677.1c-5.8,0-10.7-1.2-14.6-3.6c-3.9-2.4-6.8-5.8-8.7-10s-2.8-9.3-2.8-15.1v-32.9h9.9v31.1
							c0,5,0.8,9.1,2.3,12.2c1.5,3.1,3.5,5.4,5.9,6.8c2.4,1.4,5.1,2.1,8.1,2.1c3,0,5.7-0.6,8.1-1.9c2.4-1.3,4.4-3.4,5.9-6.5
							c1.5-3,2.3-7.1,2.3-12.1l9.8-0.1c0,7.4-1.1,13.4-3.3,17.8c-2.2,4.4-5.2,7.5-9,9.4S1522.4,677.1,1517.1,677.1z M1533.3,647.3
							v-16.3v-2.6v-12.8h9.9l-0.1,31.7L1533.3,647.3z"/>
						<path class="st2" d="M1576.8,674.9l-21.6-59.4h9.9l16.7,46.9l16.6-46.9h10l-21.6,59.4H1576.8z"/>
						<path class="st2" d="M1646.2,676.6c-5.8,0-10.9-1.3-15.3-3.9c-4.4-2.6-7.8-6.2-10.2-10.9c-2.4-4.7-3.6-10.1-3.6-16.2
							c0-6.4,1.2-12,3.5-16.8s5.7-8.5,10-11.1c4.3-2.6,9.3-3.9,15-3.9c5.9,0,11,1.4,15.2,4.1s7.4,6.7,9.5,11.8
							c2.1,5.1,3,11.2,2.7,18.2h-9.9v-3.5c-0.1-4.9-0.8-8.9-2.1-12.1c-1.3-3.2-3.2-5.6-5.7-7.2c-2.5-1.6-5.7-2.4-9.4-2.4
							c-4,0-7.4,0.9-10.2,2.6c-2.8,1.7-4.9,4.3-6.3,7.6c-1.4,3.4-2.1,7.5-2.1,12.3c0,4.7,0.7,8.6,2.1,11.9c1.4,3.3,3.5,5.8,6.2,7.5
							c2.7,1.7,6,2.6,9.9,2.6c2.8,0,5.2-0.3,7.3-0.9c2.1-0.6,4.1-1.6,5.7-3c1.7-1.4,3.1-3.3,4.2-5.6h9.4c-1,4-2.8,7.4-5.3,10.2
							c-2.5,2.8-5.6,5-9.2,6.4C1654.3,675.9,1650.4,676.6,1646.2,676.6z M1624.3,648v-7.9h43.9v7.9H1624.3z"/>
						<path class="st2" d="M1687.7,674.9v-39.2l8.7-9.4v3.5l-8.7,5.8c0-2.6,0.7-5.2,2.2-7.9s3.6-5.2,6.5-7.8c1.8-1.6,4-2.8,6.7-3.6
							c2.7-0.8,5.5-1.3,8.2-1.4s5.1,0,7,0.4v9.2c-2.3-0.6-4.8-0.8-7.3-0.5c-2.5,0.3-4.8,1.1-6.7,2.4c-1.7,1.1-3,2.4-4,3.8
							c-1,1.4-1.7,3-2.1,4.6s-0.7,3.4-0.7,5.4v0.6v34H1687.7z"/>
						<path class="st2" d="M1724.4,623.6v-8.1h39.8v8.1H1724.4z M1764.1,674.9c-5.8,1.2-11.1,1.2-15.8,0.2c-4.7-1.1-8-3.5-9.9-7.3
							c-1-1.9-1.5-3.8-1.8-5.7c-0.2-1.9-0.3-4.5-0.3-7.7v-1.9V599h9.8v53v1.7c0,2.4,0,4.2,0.1,5.5c0.1,1.3,0.5,2.4,1.1,3.4
							c1.2,2.2,3.2,3.6,5.9,4.1c2.7,0.5,6.3,0.4,10.8-0.3V674.9z"/>
						<path class="st2" d="M1804.2,676.6c-5.8,0-10.9-1.3-15.3-3.9s-7.8-6.2-10.2-10.9c-2.4-4.7-3.6-10.1-3.6-16.2
							c0-6.4,1.2-12,3.5-16.8s5.7-8.5,10-11.1c4.3-2.6,9.3-3.9,15-3.9c5.9,0,11,1.4,15.2,4.1s7.4,6.7,9.5,11.8
							c2.1,5.1,3,11.2,2.7,18.2h-9.9v-3.5c-0.1-4.9-0.8-8.9-2.1-12.1c-1.3-3.2-3.2-5.6-5.7-7.2c-2.5-1.6-5.7-2.4-9.4-2.4
							c-4,0-7.4,0.9-10.2,2.6c-2.8,1.7-4.9,4.3-6.3,7.6c-1.4,3.4-2.1,7.5-2.1,12.3c0,4.7,0.7,8.6,2.1,11.9c1.4,3.3,3.5,5.8,6.2,7.5
							c2.7,1.7,6,2.6,9.9,2.6c2.8,0,5.2-0.3,7.3-0.9c2.1-0.6,4.1-1.6,5.7-3c1.7-1.4,3.1-3.3,4.2-5.6h9.4c-1,4-2.8,7.4-5.3,10.2
							c-2.5,2.8-5.6,5-9.2,6.4C1812.3,675.9,1808.4,676.6,1804.2,676.6z M1782.3,648v-7.9h43.9v7.9H1782.3z"/>
					</g>
				</g>
			</g>
			<g>
				<polygon class="st3" points="1108.5,435.7 1020.3,435.7 1020.3,377 976.5,377 976.5,535.2 1020.3,535.2 1020.3,471.6 
					1108.5,471.6 1108.5,535.2 1152.3,535.2 1152.3,377 1108.5,377 				"/>
				<polygon class="st3" points="1446.7,498 1446.7,377 1402.9,377 1402.9,535.2 1543.4,535.2 1543.4,498 				"/>
				<path class="st3" d="M1246.7,377l-70.2,158.2h44l12.8-29.3h0l3.4-7.9h78.4l3.5,7.9h0.1l5.9,13.3l0,0l7.1,16.1h47L1305.4,377
					H1246.7z M1298.5,460.8h-45.5l22.4-51.9L1298.5,460.8z"/>
			</g>
		</g>
		<g>
			<g>
				<path class="st2" d="M688.9,391.5c10.7,10.8,24.9,16.7,40,16.8c0.1,0,0.1,0,0.2,0c13,0,25.2-4.3,35.2-12.3
					c-20.4-32.1-47.3-59.6-79-80.5C667,337.7,668.2,370.7,688.9,391.5z"/>
			</g>
			<g>
				<path class="st4" d="M674.5,407.3c-30.2-30.1-46.8-70-46.7-112.3c0-2.8,0.1-5.5,0.2-8.2c-18.7-6.7-38.4-11.4-58.8-13.8
					c-0.7,7.2-1.1,14.5-1.2,21.8c-0.2,58.4,22.6,113.4,64.3,154.8c41.5,41.3,96.9,64.2,155.8,64.4c0.3,0,0.5,0,0.8,0
					c5.3,0,10.6-0.2,15.8-0.6c-2-20.5-6.3-40.3-12.6-59.2C749.6,455.1,706.8,439.4,674.5,407.3z"/>
			</g>
			<g>
				<path class="st5" d="M776.8,570.3c-59.7-24.1-113.1-59.5-159-105c-45.8-45.5-81.2-98.5-105.2-157.5
					c-4.6-11.3-8.7-22.7-12.4-34.2c-20.1,2.8-39.5,7.8-58,14.7c4.4,14.1,9.4,28.1,15,41.9c27,66.5,66.9,126.1,118.4,177.4
					c51.5,51.2,111.6,90.9,178.7,118c10.9,4.4,22,8.5,33.1,12.2c7.2-18.4,12.4-37.7,15.5-57.8C794.2,577.1,785.5,573.8,776.8,570.3z
					"/>
			</g>
			<g>
				<path class="st6" d="M747.5,707.1l-376-378.7c-15.7,12.3-30,26.4-42.6,41.9l376.5,379.1C720.9,736.9,735.1,722.7,747.5,707.1z"
					/>
			</g>
			<g>
				<path class="st7" d="M503.3,576.1c-51.5-51.2-111.6-90.9-178.7-118c-12.7-5.1-25.5-9.7-38.4-13.9c-7,18.4-12.1,37.8-14.9,57.9
					c10.4,3.4,20.7,7.2,30.9,11.3c59.7,24.1,113.1,59.5,159,105C507,664,542.4,717,566.3,776c4,9.7,7.6,19.6,10.9,29.5
					c20.1-3,39.4-8.2,57.8-15.4c-4-12.3-8.4-24.5-13.4-36.6C594.6,687,554.8,627.3,503.3,576.1z"/>
			</g>
			<g>
				<path class="st8" d="M446.7,634.1c-41.5-41.3-96.9-64.2-155.8-64.4c-6.9,0-13.7,0.3-20.4,0.9c2.3,20.5,7,40.2,13.6,59
					c2-0.1,4-0.1,6-0.1c41.5,0,83,15.7,114.5,47c30.2,30.1,46.8,70,46.7,112.3c0,1.8-0.1,3.7-0.1,5.5c18.8,6.4,38.6,10.7,59,12.8
					c0.5-6,0.8-12,0.8-18.1C511.1,730.5,488.3,675.5,446.7,634.1z"/>
			</g>
			<g>
				<path class="st9" d="M390.2,692.2c-20.8-21-54.2-22.2-76.5-3.6c21.1,31.6,48.6,58.5,80.8,78.7c7.8-9.9,12.1-22.1,12.2-34.9
					C406.7,717.2,400.8,703,390.2,692.2z"/>
			</g>
		</g>
	</g>
</g>
</svg>
