<?xml version="1.0" encoding="utf-8"?>
<!-- Generator: Adobe Illustrator 16.0.0, SVG Export Plug-In . SVG Version: 6.00 Build 0)  -->
<!DOCTYPE svg PUBLIC "-//W3C//DTD SVG 1.1//EN" "http://www.w3.org/Graphics/SVG/1.1/DTD/svg11.dtd">
<svg version="1.1" id="Layer_1" xmlns="http://www.w3.org/2000/svg" xmlns:xlink="http://www.w3.org/1999/xlink" x="0px" y="0px"
	 width="175.846px" height="43.75px" viewBox="17.092 126.625 175.846 43.75" enable-background="new 17.092 126.625 175.846 43.75"
	 xml:space="preserve">
<g>
	<polygon fill="#B1535B" points="60.842,170.375 17.092,170.375 17.092,126.625 60.842,126.625 	"/>
	<polygon fill="#C4BBBD" points="56.029,165.562 21.904,165.562 21.904,131.438 56.029,131.438 	"/>
	<path fill="#FFFFFF" d="M28.029,144.708c0.35,0.058,0.875,0.087,1.429,0.087c3.033,0,4.667-1.692,4.667-4.667
		c0.029-2.596-1.458-4.229-4.433-4.229c-0.729,0-1.284,0.059-1.663,0.146V144.708L28.029,144.708z M26.6,134.996
		c0.875-0.117,1.896-0.233,3.004-0.233c2.042,0,3.471,0.466,4.434,1.371c0.992,0.904,1.546,2.158,1.546,3.938
		s-0.554,3.267-1.575,4.258c-1.021,1.021-2.712,1.575-4.842,1.575c-1.021,0-1.867-0.059-2.566-0.117V134.996L26.6,134.996z"/>
	<path fill="#FFFFFF" d="M48.358,141.092l-1.079-3.15c-0.233-0.729-0.409-1.371-0.583-2.013h-0.029
		c-0.175,0.642-0.35,1.312-0.554,1.983l-1.079,3.179H48.358L48.358,141.092z M44.742,142.2l-1.138,3.441h-1.458l3.733-10.967H47.6
		l3.733,10.967h-1.517L48.65,142.2H44.742L44.742,142.2z"/>
	<path fill="#FFFFFF" d="M28.146,160.4c0.642,0.379,1.575,0.729,2.537,0.729c1.458,0,2.304-0.758,2.304-1.866
		c0-1.021-0.583-1.604-2.071-2.188c-1.779-0.642-2.887-1.575-2.887-3.121c0-1.721,1.429-2.976,3.558-2.976
		c1.138,0,1.925,0.264,2.421,0.525l-0.379,1.167c-0.35-0.204-1.08-0.524-2.071-0.524c-1.487,0-2.071,0.903-2.071,1.633
		c0,1.021,0.671,1.517,2.188,2.129c1.867,0.729,2.8,1.604,2.8,3.238c0,1.691-1.254,3.149-3.85,3.149c-1.05,0-2.217-0.321-2.8-0.7
		L28.146,160.4L28.146,160.4z"/>
	<polygon fill="#FFFFFF" points="44.071,151.066 44.071,155.646 49.379,155.646 49.379,151.066 50.808,151.066 50.808,162.033 
		49.379,162.033 49.379,156.9 44.071,156.9 44.071,162.033 42.642,162.033 42.642,151.066 	"/>
	<line fill="none" stroke="#FFFFFF" stroke-width="0.3584" stroke-miterlimit="10" x1="24.383" y1="148.5" x2="53.55" y2="148.5"/>
	<path fill="#B1535B" d="M73.471,152.467c1.371,0,2.246-0.875,2.246-1.983c0-1.371-1.079-1.867-2.042-2.304
		c-0.787-0.379-1.517-0.758-1.517-1.633c0-0.642,0.467-1.079,1.196-1.079c0.817,0,1.254,0.554,1.517,1.196l0.729-0.35
		c-0.35-0.846-1.05-1.575-2.246-1.575c-1.167,0-2.042,0.759-2.042,1.867c0,1.371,1.079,1.838,2.013,2.304
		c0.787,0.379,1.545,0.758,1.545,1.633c0,0.73-0.525,1.196-1.4,1.196c-0.846,0-1.429-0.554-1.75-1.341l-0.729,0.32
		C71.429,151.767,72.217,152.467,73.471,152.467L73.471,152.467z M79.946,152.467c1.4,0,2.1-1.021,2.421-2.45l-0.788-0.116
		c-0.262,1.254-0.729,1.809-1.604,1.809c-1.167,0-1.809-1.109-1.809-3.15c0-1.925,0.642-3.062,1.809-3.062
		c0.904,0,1.312,0.583,1.546,1.721l0.787-0.146c-0.262-1.4-0.933-2.362-2.304-2.362c-1.604,0-2.684,1.371-2.684,3.879
		C77.292,151.154,78.312,152.467,79.946,152.467L79.946,152.467z M84.292,152.35h0.846v-3.558h3.033v3.558h0.846v-7.496h-0.846v3.15
		h-3.033v-3.15h-0.846V152.35L84.292,152.35z M93.712,152.467c1.546,0,2.712-1.371,2.712-3.879s-1.137-3.879-2.712-3.879
		c-1.575,0-2.712,1.371-2.712,3.879C91,151.125,92.167,152.467,93.712,152.467L93.712,152.467z M93.712,151.709
		c-1.167,0-1.867-1.139-1.867-3.122c0-1.983,0.7-3.091,1.867-3.091c1.138,0,1.837,1.108,1.837,3.091
		C95.579,150.57,94.85,151.709,93.712,151.709L93.712,151.709z M98.408,152.35h3.821v-0.787h-2.975v-6.708h-0.846V152.35
		L98.408,152.35z M105,150.191h2.334l0.582,2.158h0.847l-2.188-7.524h-0.788l-2.187,7.524h0.788L105,150.191L105,150.191z
		 M107.129,149.434h-1.925l0.321-1.167c0.262-0.875,0.438-1.546,0.641-2.275h0.029c0.176,0.729,0.38,1.429,0.643,2.304
		L107.129,149.434L107.129,149.434z M110.57,152.35h0.846v-3.179h1.312l1.459,3.179h0.875l-1.517-3.324
		c0.759-0.205,1.429-0.817,1.429-2.013c0-1.458-0.816-2.129-2.274-2.129h-2.13V152.35L110.57,152.35z M111.388,148.413v-2.8h1.225
		c0.991,0,1.517,0.35,1.517,1.342c0,1.05-0.525,1.429-1.517,1.429h-1.225V148.413z M119.059,152.467
		c1.371,0,2.246-0.875,2.246-1.983c0-1.371-1.08-1.867-2.042-2.304c-0.788-0.379-1.517-0.758-1.517-1.633
		c0-0.642,0.467-1.079,1.195-1.079c0.816,0,1.254,0.554,1.518,1.196l0.729-0.35c-0.35-0.846-1.05-1.575-2.246-1.575
		c-1.166,0-2.041,0.759-2.041,1.867c0,1.371,1.078,1.838,2.012,2.304c0.788,0.379,1.547,0.758,1.547,1.633
		c0,0.73-0.525,1.196-1.4,1.196c-0.846,0-1.43-0.554-1.75-1.341l-0.729,0.32C117.046,151.767,117.805,152.467,119.059,152.467
		L119.059,152.467z M123.287,152.35h0.846v-3.558h3.033v3.558h0.847v-7.496h-0.847v3.15h-3.033v-3.15h-0.846V152.35L123.287,152.35z
		 M130.404,152.35h0.846v-7.496h-0.846V152.35L130.404,152.35z M133.612,152.35h0.847v-3.121h1.195c1.312,0,2.362-0.554,2.362-2.216
		c0-1.517-0.933-2.129-2.304-2.129h-2.101V152.35L133.612,152.35z M134.43,148.471v-2.829h1.225c1.021,0,1.517,0.379,1.517,1.4
		c0,1.05-0.524,1.458-1.517,1.458h-1.225V148.471z M141.342,150.979h1.458l0.38,1.342h0.524l-1.37-4.695h-0.496l-1.371,4.695h0.496
		L141.342,150.979L141.342,150.979z M142.684,150.541h-1.225l0.203-0.729c0.146-0.555,0.292-0.962,0.379-1.429l0,0
		c0.117,0.438,0.234,0.875,0.38,1.429L142.684,150.541L142.684,150.541z M144.783,152.35h0.525v-4.2h1.195v-0.496h-2.945v0.496
		h1.195v4.2H144.783z M149.421,152.35h0.846v-3.558h3.033v3.558h0.847v-7.496H153.3v3.15h-3.033v-3.15h-0.846V152.35L149.421,152.35
		z M157.354,150.191h2.334l0.584,2.158h0.846l-2.188-7.524h-0.788l-2.188,7.524h0.788L157.354,150.191L157.354,150.191z
		 M159.483,149.434h-1.925l0.32-1.167c0.263-0.875,0.438-1.546,0.643-2.275h0.028c0.175,0.729,0.38,1.429,0.612,2.304
		L159.483,149.434L159.483,149.434z M162.925,152.35h0.847v-3.179h1.312l1.457,3.179h0.875l-1.516-3.324
		c0.758-0.205,1.429-0.817,1.429-2.013c0-1.458-0.816-2.129-2.274-2.129h-2.13V152.35L162.925,152.35z M163.771,148.413v-2.8h1.225
		c0.991,0,1.517,0.35,1.517,1.342c0,1.05-0.525,1.429-1.517,1.429h-1.225V148.413z M170.858,152.379h0.788l2.188-7.525h-0.788
		l-1.138,4.054c-0.233,0.846-0.438,1.517-0.612,2.246h-0.029c-0.175-0.729-0.351-1.43-0.612-2.275l-1.138-4.054h-0.846
		L170.858,152.379L170.858,152.379z M175.992,150.191h2.333l0.583,2.158h0.846l-2.188-7.524h-0.787l-2.188,7.524h0.787
		L175.992,150.191L175.992,150.191z M178.121,149.434h-1.926l0.321-1.167c0.263-0.875,0.438-1.546,0.642-2.275h0.029
		c0.175,0.729,0.379,1.429,0.612,2.304L178.121,149.434L178.121,149.434z M181.562,152.35h0.846v-3.179h1.312l1.459,3.179h0.875
		l-1.518-3.324c0.759-0.205,1.43-0.817,1.43-2.013c0-1.458-0.816-2.129-2.275-2.129h-2.129V152.35L181.562,152.35z M182.408,148.413
		v-2.8h1.225c0.992,0,1.518,0.35,1.518,1.342c0,1.05-0.525,1.429-1.518,1.429h-1.225V148.413z M188.096,152.35h1.662
		c2.042,0,3.18-1.137,3.18-3.762c0-2.625-1.108-3.733-3.18-3.733h-1.662V152.35L188.096,152.35z M188.941,151.592v-5.95h0.904
		c1.517,0,2.217,0.904,2.217,2.946c0,2.1-0.7,3.004-2.217,3.004H188.941L188.941,151.592z"/>
	<path fill="#B1535B" d="M71.4,140.188h1.663c2.042,0,3.179-1.138,3.179-3.763s-1.108-3.733-3.179-3.733H71.4V140.188L71.4,140.188z
		 M72.246,139.429v-5.95h0.904c1.517,0,2.217,0.904,2.217,2.946c0,2.1-0.7,3.004-2.217,3.004H72.246L72.246,139.429z
		 M78.283,140.188h0.846v-7.496h-0.846V140.188L78.283,140.188z M83.796,140.333c0.933,0,1.517-0.583,1.75-1.167l0,0v1.021h0.671
		V136.6h-2.188v0.729h1.429c-0.029,1.488-0.613,2.217-1.604,2.217c-1.167,0-1.837-1.05-1.837-3.15c0-2.013,0.7-3.062,1.809-3.062
		c0.846,0,1.312,0.554,1.545,1.75l0.759-0.146c-0.292-1.458-0.963-2.362-2.304-2.362c-1.663,0-2.684,1.429-2.684,3.879
		C81.2,138.904,82.133,140.333,83.796,140.333L83.796,140.333z M88.492,140.188h0.846v-7.496h-0.846V140.188L88.492,140.188z
		 M93.129,140.188h0.846v-6.708H95.9v-0.787h-4.725v0.787H93.1v6.708H93.129z M97.854,138.029h2.333l0.583,2.158h0.846l-2.188-7.525
		h-0.788l-2.188,7.525h0.788L97.854,138.029L97.854,138.029z M99.983,137.3h-1.925l0.321-1.167c0.262-0.875,0.438-1.546,0.642-2.275
		h0.029c0.175,0.729,0.379,1.429,0.642,2.304L99.983,137.3L99.983,137.3z M103.425,140.188h3.821v-0.758h-2.975v-6.708h-0.846
		V140.188L103.425,140.188z M112.117,138.029h2.333l0.583,2.158h0.846l-2.188-7.525h-0.787l-2.188,7.525h0.787L112.117,138.029
		L112.117,138.029z M114.246,137.3h-1.926l0.321-1.167c0.263-0.875,0.438-1.546,0.642-2.275h0.029
		c0.175,0.729,0.379,1.429,0.642,2.304L114.246,137.3L114.246,137.3z M119.729,140.333c1.4,0,2.101-1.021,2.422-2.45l-0.788-0.146
		c-0.263,1.254-0.729,1.809-1.604,1.809c-1.166,0-1.808-1.108-1.808-3.15c0-1.925,0.642-3.062,1.808-3.062
		c0.904,0,1.312,0.583,1.547,1.721l0.787-0.146c-0.263-1.4-0.934-2.362-2.305-2.362c-1.604,0-2.684,1.371-2.684,3.879
		C117.046,138.992,118.066,140.333,119.729,140.333L119.729,140.333z M126.32,140.333c1.4,0,2.101-1.021,2.422-2.45l-0.788-0.146
		c-0.263,1.254-0.729,1.809-1.604,1.809c-1.166,0-1.809-1.108-1.809-3.15c0-1.925,0.643-3.062,1.809-3.062
		c0.904,0,1.312,0.583,1.547,1.721l0.787-0.146c-0.263-1.4-0.934-2.362-2.305-2.362c-1.604,0-2.684,1.371-2.684,3.879
		C123.666,138.992,124.688,140.333,126.32,140.333L126.32,140.333z M130.638,140.188h3.995v-0.758h-3.149v-2.8h2.188v-0.758h-2.188
		v-2.392h2.976v-0.787h-3.821V140.188L130.638,140.188z M138.454,140.333c1.371,0,2.246-0.875,2.246-1.983
		c0-1.371-1.079-1.867-2.042-2.304c-0.787-0.379-1.517-0.758-1.517-1.633c0-0.642,0.467-1.079,1.196-1.079
		c0.816,0,1.254,0.554,1.516,1.196l0.73-0.35c-0.351-0.846-1.051-1.575-2.246-1.575c-1.167,0-2.042,0.758-2.042,1.867
		c0,1.371,1.079,1.838,2.013,2.304c0.787,0.379,1.545,0.758,1.545,1.633c0,0.729-0.524,1.196-1.399,1.196
		c-0.846,0-1.429-0.554-1.75-1.341l-0.729,0.321C136.412,139.633,137.2,140.333,138.454,140.333L138.454,140.333z M144.638,140.333
		c1.37,0,2.245-0.875,2.245-1.983c0-1.371-1.078-1.867-2.041-2.304c-0.787-0.379-1.517-0.758-1.517-1.633
		c0-0.642,0.466-1.079,1.196-1.079c0.816,0,1.254,0.554,1.516,1.196l0.729-0.35c-0.351-0.846-1.05-1.575-2.245-1.575
		c-1.168,0-2.043,0.758-2.043,1.867c0,1.371,1.08,1.838,2.014,2.304c0.787,0.379,1.545,0.758,1.545,1.633
		c0,0.729-0.524,1.196-1.399,1.196c-0.847,0-1.429-0.554-1.75-1.341l-0.729,0.321C142.625,139.633,143.383,140.333,144.638,140.333
		L144.638,140.333z M150.733,140.188h0.524v-4.2h1.196v-0.466h-2.946v0.496h1.196v4.171H150.733z M154.408,140.275
		c0.963,0,1.691-0.846,1.691-2.421c0-1.575-0.699-2.42-1.691-2.42s-1.691,0.846-1.691,2.42
		C152.717,139.429,153.416,140.275,154.408,140.275L154.408,140.275z M154.408,139.809c-0.729,0-1.166-0.7-1.166-1.955
		c0-1.254,0.438-1.954,1.166-1.954c0.7,0,1.138,0.7,1.138,1.954C155.546,139.108,155.108,139.809,154.408,139.809L154.408,139.809z"
		/>
	<path fill="#B1535B" d="M71.4,163.871h1.021c1.283,0,1.983-0.7,1.983-2.334c0-1.633-0.7-2.333-1.983-2.333H71.4V163.871
		L71.4,163.871z M71.925,163.404v-3.733h0.554c0.963,0,1.4,0.554,1.4,1.837c0,1.312-0.438,1.867-1.4,1.867h-0.554V163.404z
		 M75.542,162.529H77l0.379,1.342h0.525l-1.371-4.696h-0.496l-1.371,4.696h0.496L75.542,162.529L75.542,162.529z M76.883,162.062
		h-1.196l0.204-0.729c0.146-0.555,0.292-0.963,0.379-1.43l0,0c0.117,0.438,0.233,0.875,0.379,1.43L76.883,162.062L76.883,162.062z
		 M79.712,163.959c0.875,0,1.4-0.555,1.4-1.226c0-0.846-0.67-1.167-1.283-1.458c-0.496-0.234-0.933-0.467-0.933-1.021
		c0-0.408,0.292-0.67,0.729-0.67c0.496,0,0.788,0.35,0.962,0.729l0.467-0.233c-0.233-0.524-0.671-0.991-1.4-0.991
		c-0.729,0-1.284,0.467-1.284,1.166c0,0.846,0.671,1.167,1.254,1.43c0.496,0.232,0.962,0.467,0.962,1.021
		c0,0.467-0.321,0.759-0.875,0.759c-0.525,0-0.875-0.351-1.108-0.846l-0.466,0.203C78.458,163.521,78.925,163.959,79.712,163.959
		L79.712,163.959z M81.9,163.871h0.525v-2.217h1.896v2.217h0.525v-4.667h-0.525v1.954h-1.896v-1.954H81.9V163.871L81.9,163.871z
		 M85.779,163.871h0.583V163.2h-0.583V163.871L85.779,163.871z M87.296,163.871h0.525v-2.217h1.896v2.217h0.525v-4.667h-0.525v1.954
		h-1.896v-1.954h-0.525V163.871L87.296,163.871z M91.788,162.529h1.458l0.379,1.342h0.525l-1.371-4.696h-0.496l-1.371,4.696h0.496
		L91.788,162.529L91.788,162.529z M93.129,162.062h-1.196l0.205-0.729c0.146-0.555,0.292-0.963,0.379-1.43l0,0
		c0.117,0.438,0.233,0.875,0.379,1.43L93.129,162.062L93.129,162.062z M94.792,163.871h0.525v-1.983h0.816l0.904,1.983h0.554
		l-0.962-2.1c0.466-0.117,0.875-0.525,0.875-1.255c0-0.904-0.525-1.342-1.429-1.342h-1.284V163.871L94.792,163.871z M95.317,161.421
		v-1.75h0.758c0.612,0,0.933,0.233,0.933,0.846c0,0.671-0.321,0.904-0.933,0.904H95.317L95.317,161.421z M99.283,163.9h0.496
		l1.341-4.696h-0.496l-0.7,2.538c-0.146,0.524-0.262,0.962-0.379,1.399l0,0c-0.117-0.467-0.233-0.904-0.379-1.429l-0.7-2.538h-0.525
		L99.283,163.9L99.283,163.9z M101.996,162.529h1.458l0.379,1.342h0.525l-1.371-4.696h-0.496l-1.371,4.696h0.496L101.996,162.529
		L101.996,162.529z M103.337,162.062h-1.196l0.204-0.729c0.146-0.555,0.292-0.963,0.379-1.43l0,0
		c0.117,0.438,0.233,0.875,0.379,1.43L103.337,162.062L103.337,162.062z M105,163.871h0.525v-1.983h0.816l0.904,1.983h0.554
		l-0.962-2.1c0.467-0.117,0.875-0.525,0.875-1.255c0-0.904-0.525-1.342-1.43-1.342H105V163.871L105,163.871z M105.525,161.421v-1.75
		h0.758c0.613,0,0.934,0.233,0.934,0.846c0,0.671-0.32,0.904-0.934,0.904H105.525L105.525,161.421z M108.617,163.871h1.021
		c1.283,0,1.983-0.7,1.983-2.334c0-1.633-0.7-2.333-1.983-2.333h-1.021V163.871L108.617,163.871z M109.142,163.404v-3.733h0.554
		c0.963,0,1.4,0.554,1.4,1.837c0,1.312-0.438,1.867-1.4,1.867h-0.554V163.404z M112.088,163.871h0.583V163.2h-0.583V163.871
		L112.088,163.871z M113.633,163.871h2.509v-0.467h-1.954v-1.75h1.371v-0.467h-1.371V159.7h1.867v-0.496h-2.393v4.667H113.633z
		 M116.842,163.871h1.021c1.284,0,1.983-0.7,1.983-2.334c0-1.633-0.699-2.333-1.983-2.333h-1.021V163.871L116.842,163.871z
		 M117.367,163.404v-3.733h0.554c0.962,0,1.399,0.554,1.399,1.837c0,1.312-0.438,1.867-1.399,1.867h-0.554V163.404z
		 M122.004,163.959c1.021,0,1.459-0.672,1.459-1.634v-3.121h-0.525v3.092c0,0.759-0.233,1.196-0.934,1.196
		c-0.699,0-0.934-0.438-0.934-1.226v-3.062h-0.524v3.149C120.546,163.316,120.983,163.959,122.004,163.959L122.004,163.959z"/>
</g>
</svg>
