<?xml version="1.0" encoding="UTF-8"?><svg id="a" xmlns="http://www.w3.org/2000/svg" xmlns:xlink="http://www.w3.org/1999/xlink" viewBox="0 0 289.24 100.22"><defs><style>.d{fill:none;}.e{fill:#006059;}.f{fill:#7dc34b;}.g{clip-path:url(#b);}.h{clip-path:url(#c);}</style><clipPath id="b"><rect class="d" width="289.24" height="100.22"/></clipPath><clipPath id="c"><rect class="d" width="289.24" height="100.22"/></clipPath></defs><g class="g"><path class="f" d="M252.34,27.4c-.66,0-1.26-.16-1.8-.47-.54-.31-.96-.75-1.27-1.32-.31-.57-.47-1.22-.47-1.96s.16-1.39,.47-1.96c.31-.57,.74-1.01,1.27-1.32,.54-.31,1.14-.47,1.8-.47s1.26,.16,1.8,.47c.54,.31,.96,.75,1.27,1.32,.31,.57,.47,1.22,.47,1.96s-.16,1.39-.47,1.96c-.31,.57-.74,1.01-1.27,1.32-.54,.31-1.14,.47-1.8,.47m0,3.07c1.39,0,2.63-.29,3.74-.88,1.1-.59,1.97-1.4,2.6-2.43,.63-1.04,.95-2.2,.95-3.5s-.32-2.47-.95-3.5c-.63-1.04-1.5-1.85-2.6-2.44-1.1-.59-2.35-.88-3.74-.88s-2.63,.29-3.74,.88c-1.1,.59-1.97,1.4-2.6,2.44-.63,1.04-.95,2.2-.95,3.5s.32,2.47,.95,3.5c.63,1.04,1.5,1.85,2.6,2.43,1.1,.59,2.35,.88,3.74,.88"/></g><path class="f" d="M269.37,24.81l-1.66-4.15-1.66,4.15h3.32Zm1.08,2.7h-5.49l-1.02,2.52h-3.74l5.72-12.97h3.61l5.74,12.97h-3.82l-1.02-2.52Z"/><g class="h"><path class="f" d="M280.73,19.69h2.23c.7,0,1.22,.13,1.53,.38,.32,.25,.47,.65,.47,1.19s-.16,.96-.47,1.21c-.31,.25-.83,.38-1.53,.38h-2.23v-3.17Zm5.22,5.26c.74-.26,1.38-.74,1.84-1.38,.43-.63,.65-1.43,.65-2.37,0-1.34-.43-2.37-1.28-3.08-.85-.71-2.07-1.07-3.63-1.07h-6.19v12.97h3.39v-4.7h1.93l2.74,4.68v.02h3.84l-3.29-5.08Z"/><path class="f" d="M234.71,29.43c-1.05-.55-1.94-1.38-2.55-2.4-1.24-2.16-1.24-4.81,0-6.97,.61-1.02,1.49-1.85,2.55-2.4,1.13-.59,2.38-.88,3.66-.86,1.1-.02,2.19,.2,3.21,.63,.93,.4,1.74,1.03,2.38,1.82l-2.33,2.11c-.84-1.01-1.86-1.52-3.06-1.52-.66-.01-1.3,.15-1.88,.46-.54,.3-.99,.76-1.28,1.31-.61,1.22-.61,2.65,0,3.87,.29,.55,.73,1,1.28,1.31,.58,.32,1.23,.47,1.88,.46,1.2,0,2.22-.51,3.06-1.52l2.33,2.11c-.63,.79-1.44,1.42-2.37,1.82-1.01,.43-2.11,.65-3.21,.63-1.27,.02-2.53-.28-3.66-.86"/><path class="f" d="M47.99,25.18c-2.81-.95-5.93-1.45-9.37-1.45-3.79,0-7.3,.64-10.5,1.92-3.21,1.28-5.98,3.12-8.32,5.53v-6.46H0v59.31H20.79v-28.67c0-4.67,1.08-8.17,3.23-10.51,2.15-2.33,5.02-3.5,8.59-3.5,6.49,0,9.74,4.05,9.74,12.15v30.53h20.79V50.1c0-3.99-.48-7.51-1.4-10.59-6.39-2.59-11.41-7.81-13.74-14.33"/><path class="f" d="M70.83,34.03c9.4,0,17.01-7.62,17.01-17.01S80.22,0,70.83,0s-17.01,7.62-17.01,17.01,7.62,17.01,17.01,17.01"/><path class="e" d="M174.63,41.78h-12.52v42.22h12.52V41.78Zm-67.33,20.63c0,3.64-1.03,6.54-3.09,8.71-2.06,2.17-4.7,3.25-7.91,3.25s-5.86-1.08-7.95-3.25c-2.09-2.17-3.13-5.07-3.13-8.71s1.04-6.54,3.13-8.71c2.09-2.17,4.74-3.25,7.95-3.25s5.85,1.08,7.91,3.25c2.06,2.17,3.09,5.07,3.09,8.71m9.63,11.48c2.03-3.37,3.05-7.2,3.05-11.48s-1.02-8.11-3.05-11.48c-2.03-3.37-4.84-6.01-8.43-7.91-3.59-1.9-7.65-2.85-12.2-2.85s-8.63,.95-12.24,2.85c-3.61,1.9-6.44,4.54-8.47,7.91-2.03,3.37-3.05,7.2-3.05,11.48s1.02,8.11,3.05,11.48c2.03,3.37,4.86,6.01,8.47,7.91,3.61,1.9,7.69,2.85,12.24,2.85s8.62-.95,12.2-2.85c3.58-1.9,6.39-4.54,8.43-7.91m25.74-4.9v-17.58h10.76v-9.63h-10.76v-10.52h-12.52v10.52h-6.66v9.63h6.66v17.74c0,5.09,1.4,8.94,4.21,11.56,2.81,2.62,6.78,3.93,11.92,3.93,1.98,0,3.87-.23,5.66-.68,1.79-.45,3.3-1.14,4.54-2.05l-3.37-8.83c-1.39,1.07-3.08,1.61-5.06,1.61-1.71,0-3.04-.49-3.97-1.48-.94-.99-1.4-2.4-1.4-4.21m31.31-36.95c1.45-1.36,2.17-3.09,2.17-5.18,0-1.93-.72-3.53-2.17-4.82-1.44-1.29-3.32-1.93-5.62-1.93s-4.17,.67-5.62,2.01c-1.44,1.34-2.17,3-2.17,4.98s.72,3.64,2.17,4.98c1.44,1.34,3.32,2.01,5.62,2.01s4.17-.68,5.62-2.05m83.46,9.74h-12.03l-11.81,28.34-11.74-28.34h-20.21s0-1.84,0-1.84c0-4.17,1.9-6.26,5.7-6.26,1.93,0,3.61,.51,5.06,1.53l3.29-9.07c-1.12-.75-2.53-1.33-4.21-1.73-1.69-.4-3.47-.6-5.34-.6-5.3,0-9.41,1.44-12.32,4.33-2.92,2.89-4.37,6.8-4.37,11.72v1.93h-6.66v9.63h6.66v32.59h12.52V51.42h11.15s14.14,32.91,14.14,32.91l-.16,.4c-.86,1.93-1.82,3.3-2.89,4.13-1.07,.83-2.46,1.24-4.17,1.24-1.23,0-2.48-.24-3.73-.72-1.26-.48-2.37-1.15-3.33-2.01l-4.57,8.91c1.39,1.23,3.18,2.19,5.38,2.89,2.19,.69,4.42,1.04,6.66,1.04,4.12,0,7.64-1.02,10.56-3.05,2.92-2.03,5.36-5.54,7.35-10.51l19.11-44.87Z"/></g></svg>